<svg xmlns="http://www.w3.org/2000/svg" viewBox="0 0 32 32" role="img" aria-label="LinkerBell">
  <!-- PageTitle과 동일: 민트 배지 + Sparkles (Lucide 24 뷰를 32 안에 중앙 배치) -->
  <circle cx="16" cy="16" r="16" fill="#A7F3D0"/>
  <g transform="translate(4 4)" fill="none" stroke="#064E3B" stroke-width="2" stroke-linecap="round" stroke-linejoin="round">
    <path
      fill="#064E3B"
      stroke="none"
      d="M11.017 2.814a1 1 0 0 1 1.966 0l1.051 5.558a2 2 0 0 0 1.594 1.594l5.558 1.051a1 1 0 0 1 0 1.966l-5.558 1.051a2 2 0 0 0-1.594 1.594l-1.051 5.558a1 1 0 0 1-1.966 0l-1.051-5.558a2 2 0 0 0-1.594-1.594l-5.558-1.051a1 1 0 0 1 0-1.966l5.558-1.051a2 2 0 0 0 1.594-1.594z"
    />
    <path d="M20 2v4" />
    <path d="M22 4h-4" />
    <circle cx="4" cy="20" r="2" fill="#064E3B" stroke="none" />
  </g>
</svg>
